<svg id="Layer_1" data-name="Layer 1" xmlns="http://www.w3.org/2000/svg" viewBox="0 0 12 12"><defs><style>.cls-1{fill:#fff;}</style></defs><g id="Rectangle_424" data-name="Rectangle 424"><path class="cls-1" d="M951.93,539.64v3a3,3,0,0,1-3,3h-5a3,3,0,0,1-3-3v-5a3,3,0,0,1,3-3h3v1h-3a2,2,0,0,0-2,2v5a2,2,0,0,0,2,2h5a2,2,0,0,0,2-2v-3Z" transform="translate(-940.93 -533.64)"/></g><path id="Rectangle_426" data-name="Rectangle 426" class="cls-1" d="M944.43,537.64h4a.5.5,0,0,1,.5.5h0a.5.5,0,0,1-.5.5h-4a.5.5,0,0,1-.5-.5h0A.51.51,0,0,1,944.43,537.64Z" transform="translate(-940.93 -533.64)"/><path id="Rectangle_427" data-name="Rectangle 427" class="cls-1" d="M944.43,539.64h4a.5.5,0,0,1,.5.5h0a.5.5,0,0,1-.5.5h-4a.5.5,0,0,1-.5-.5h0A.51.51,0,0,1,944.43,539.64Z" transform="translate(-940.93 -533.64)"/><path id="Rectangle_428" data-name="Rectangle 428" class="cls-1" d="M944.43,541.64h2a.5.5,0,0,1,.5.5h0a.5.5,0,0,1-.5.5h-2a.5.5,0,0,1-.5-.5h0A.51.51,0,0,1,944.43,541.64Z" transform="translate(-940.93 -533.64)"/><path class="cls-1" d="M952.93,536.14a.5.5,0,0,1-.5.5h-1.5v1.5a.5.5,0,0,1-.5.5.5.5,0,0,1-.5-.5v-1.5h-1.5a.5.5,0,0,1-.5-.5.51.51,0,0,1,.5-.5h1.5v-1.5a.51.51,0,0,1,.5-.5.5.5,0,0,1,.5.5v1.5h1.5A.5.5,0,0,1,952.93,536.14Z" transform="translate(-940.93 -533.64)"/></svg>