<svg id="Layer_1" data-name="Layer 1" xmlns="http://www.w3.org/2000/svg" viewBox="0 0 20 23">
    <defs>
        <style>.cls-1{fill:#222;}</style>
    </defs>
    <path class="cls-1" d="M1063.53,588.19v14a2,2,0,0,0,2,2h16a2,2,0,0,0,2-2v-14Zm5,12.5a.51.51,0,0,1-.5.5h-1a.5.5,0,0,1-.5-.5v-1a.5.5,0,0,1,.5-.5h1a.5.5,0,0,1,.5.5Zm0-4a.51.51,0,0,1-.5.5h-1a.5.5,0,0,1-.5-.5v-1a.5.5,0,0,1,.5-.5h1a.5.5,0,0,1,.5.5Zm0-4a.51.51,0,0,1-.5.5h-1a.5.5,0,0,1-.5-.5v-1a.5.5,0,0,1,.5-.5h1a.5.5,0,0,1,.5.5Zm4,8a.51.51,0,0,1-.5.5h-1a.5.5,0,0,1-.5-.5v-1a.5.5,0,0,1,.5-.5h1a.5.5,0,0,1,.5.5Zm0-4a.51.51,0,0,1-.5.5h-1a.5.5,0,0,1-.5-.5v-1a.5.5,0,0,1,.5-.5h1a.5.5,0,0,1,.5.5Zm0-4a.51.51,0,0,1-.5.5h-1a.5.5,0,0,1-.5-.5v-1a.5.5,0,0,1,.5-.5h1a.5.5,0,0,1,.5.5Zm4,8a.51.51,0,0,1-.5.5h-1a.5.5,0,0,1-.5-.5v-1a.5.5,0,0,1,.5-.5h1a.5.5,0,0,1,.5.5Zm0-4a.51.51,0,0,1-.5.5h-1a.5.5,0,0,1-.5-.5v-1a.5.5,0,0,1,.5-.5h1a.5.5,0,0,1,.5.5Zm0-4a.51.51,0,0,1-.5.5h-1a.5.5,0,0,1-.5-.5v-1a.5.5,0,0,1,.5-.5h1a.5.5,0,0,1,.5.5Zm4,4a.51.51,0,0,1-.5.5h-1a.5.5,0,0,1-.5-.5v-1a.5.5,0,0,1,.5-.5h1a.5.5,0,0,1,.5.5Zm0-4a.51.51,0,0,1-.5.5h-1a.5.5,0,0,1-.5-.5v-1a.5.5,0,0,1,.5-.5h1a.5.5,0,0,1,.5.5Z" transform="translate(-1063.53 -581.19)"/>
    <path class="cls-1" d="M1083.53,585.19v2h-20v-2a2,2,0,0,1,2-2h2v-1a1,1,0,0,1,2,0v1h8v-1a1,1,0,0,1,2,0v1h2A2,2,0,0,1,1083.53,585.19Z" transform="translate(-1063.53 -581.19)"/>
</svg>