<svg id="Layer_1" data-name="Layer 1" xmlns="http://www.w3.org/2000/svg" viewBox="0 0 18 18"><defs><style>.cls-1{fill:#222;}</style></defs><path class="cls-1" d="M1086.27,589.84h-2.35a4.12,4.12,0,0,0-.23-.58l1.66-1.66a1,1,0,0,0,0-1.42l-1.42-1.41a1,1,0,0,0-1.41,0l-1.66,1.66a3.32,3.32,0,0,0-.59-.24v-2.35a1,1,0,0,0-1-1h-2a1,1,0,0,0-1,1v2.35a3.23,3.23,0,0,0-.58.24l-1.66-1.66a1,1,0,0,0-1.41,0l-1.42,1.41a1,1,0,0,0,0,1.42l1.66,1.66a3.23,3.23,0,0,0-.24.58h-2.35a1,1,0,0,0-1,1v2a1,1,0,0,0,1,1h2.35a3.23,3.23,0,0,0,.24.58l-1.66,1.66a1,1,0,0,0,0,1.41l1.42,1.42a1,1,0,0,0,1.41,0l1.66-1.66a3.23,3.23,0,0,0,.58.24v2.35a1,1,0,0,0,1,1h2a1,1,0,0,0,1-1v-2.35a3.32,3.32,0,0,0,.59-.24l1.66,1.66a1,1,0,0,0,1.41,0l1.42-1.42a1,1,0,0,0,0-1.41l-1.66-1.66a4.12,4.12,0,0,0,.23-.58h2.35a1,1,0,0,0,1-1v-2A1,1,0,0,0,1086.27,589.84Zm-5,2.15a2.91,2.91,0,0,1-.76,1.85l-.23.23a2.94,2.94,0,0,1-1.83.76h-.33a3,3,0,0,1-1.84-.76l-.23-.23a3,3,0,0,1-.76-1.84,1.28,1.28,0,0,1,0-.32,2.94,2.94,0,0,1,.76-1.84,2.5,2.5,0,0,1,.23-.23,3,3,0,0,1,1.84-.76h.33a2.94,2.94,0,0,1,1.83.76,2.5,2.5,0,0,1,.23.23,2.91,2.91,0,0,1,.76,1.85,1.13,1.13,0,0,1,0,.3Z" transform="translate(-1069.27 -582.84)"/></svg>