<svg id="Layer_1" data-name="Layer 1" xmlns="http://www.w3.org/2000/svg" viewBox="0 0 14.96 16.84">
    <defs>
        <style>.cls-1{fill:#ced4da;}</style>
    </defs>
    <g id="Group_163" data-name="Group 163">
        <path id="Path_40" data-name="Path 40" class="cls-1" d="M1091.42,589.64H1081a.76.76,0,0,0-.75.75v9.73a1.5,1.5,0,0,0,1.5,1.5h9a1.5,1.5,0,0,0,1.5-1.5v-9.73a.76.76,0,0,0-.75-.75Zm-7.48,9a.75.75,0,0,1-1.5,0v-6a.75.75,0,0,1,1.5,0Zm3,0a.75.75,0,1,1-1.5,0v-6a.75.75,0,1,1,1.5,0Zm3,0a.75.75,0,1,1-1.5,0v-6a.75.75,0,1,1,1.5,0Z" transform="translate(-1078.71 -584.78)"/>
        <path id="Path_41" data-name="Path 41" class="cls-1" d="M1092.17,586.65h-2.62a1.87,1.87,0,0,0-1.87-1.87h-3a1.87,1.87,0,0,0-1.87,1.87h-2.61a1.5,1.5,0,0,0-1.5,1.5.75.75,0,0,0,.74.75h13.47a.75.75,0,0,0,.75-.75h0A1.5,1.5,0,0,0,1092.17,586.65Zm-7.48-.75h3a.75.75,0,0,1,.75.75h-4.49a.76.76,0,0,1,.75-.75Z" transform="translate(-1078.71 -584.78)"/>
    </g>
</svg>