<svg id="Layer_1" data-name="Layer 1" xmlns="http://www.w3.org/2000/svg" viewBox="0 0 22 19"><defs><style>.cls-1{fill:#222;}</style></defs><path class="cls-1" d="M1091,589.77h-16a3,3,0,0,0-3,3v5a2,2,0,0,0,2,2h2v2a2,2,0,0,0,2,2h10a2,2,0,0,0,2-2v-2h2a2,2,0,0,0,2-2v-5A3,3,0,0,0,1091,589.77Zm-3,11a1,1,0,0,1-1,1h-8a1,1,0,0,1-1-1v-3h10Zm3-7a1,1,0,1,1,1-1A1,1,0,0,1,1091,593.77Z" transform="translate(-1072.02 -584.77)"/><rect id="Rectangle_440" data-name="Rectangle 440" class="cls-1" x="5" width="12" height="4" rx="1"/></svg>