<svg id="Layer_1" data-name="Layer 1" xmlns="http://www.w3.org/2000/svg" viewBox="0 0 14.96 16.84"><defs><style>.cls-1{fill:#bbb;}</style></defs><g id="Group_163" data-name="Group 163"><path id="Path_40" data-name="Path 40" class="cls-1" d="M1088.26,590.71h-10.47a.76.76,0,0,0-.75.75v9.73a1.5,1.5,0,0,0,1.5,1.5h9a1.5,1.5,0,0,0,1.5-1.5v-9.73a.75.75,0,0,0-.75-.75Zm-7.48,9a.75.75,0,0,1-1.5,0v-6a.75.75,0,0,1,1.5,0Zm3,0a.75.75,0,0,1-1.5,0v-6a.75.75,0,0,1,1.5,0Zm3,0a.75.75,0,0,1-1.5,0v-6a.75.75,0,0,1,1.5,0Z" transform="translate(-1075.54 -585.85)"/><path id="Path_41" data-name="Path 41" class="cls-1" d="M1089,587.72h-2.62a1.87,1.87,0,0,0-1.87-1.87h-3a1.87,1.87,0,0,0-1.87,1.87H1077a1.51,1.51,0,0,0-1.5,1.5.75.75,0,0,0,.75.75h13.47a.74.74,0,0,0,.74-.74h0A1.5,1.5,0,0,0,1089,587.72Zm-7.48-.75h3a.76.76,0,0,1,.75.75h-4.49a.75.75,0,0,1,.75-.75Z" transform="translate(-1075.54 -585.85)"/></g></svg>