<svg id="Layer_1" data-name="Layer 1" xmlns="http://www.w3.org/2000/svg" viewBox="0 0 11 11"><defs><style>.cls-1{fill:#d3d3d3;}</style></defs><path class="cls-1" d="M953.23,535.1v2.5a2,2,0,0,1-.58,1.41,2.12,2.12,0,0,1-.83.5,1.87,1.87,0,0,1-.59.09h-7a1.87,1.87,0,0,1-.59-.09,2,2,0,0,1-.82-.5,2,2,0,0,1-.59-1.41v-2.5a.5.5,0,0,1,.5-.5.5.5,0,0,1,.5.5v2.5a1,1,0,0,0,1,1h7a1,1,0,0,0,1-1v-2.5a.5.5,0,0,1,.5-.5A.5.5,0,0,1,953.23,535.1Z" transform="translate(-942.23 -528.6)"/><path id="Rectangle_449" data-name="Rectangle 449" class="cls-1" d="M947.73,528.6h0a.51.51,0,0,1,.5.5v7a.5.5,0,0,1-.5.5h0a.5.5,0,0,1-.5-.5v-7A.5.5,0,0,1,947.73,528.6Z" transform="translate(-942.23 -528.6)"/><path id="Rectangle_450" data-name="Rectangle 450" class="cls-1" d="M947.37,528.75h0a.51.51,0,0,1,.71,0l2.12,2.12a.5.5,0,0,1,0,.71h0a.5.5,0,0,1-.7,0l-2.13-2.12A.51.51,0,0,1,947.37,528.75Z" transform="translate(-942.23 -528.6)"/><path id="Rectangle_451" data-name="Rectangle 451" class="cls-1" d="M948.08,528.75h0a.5.5,0,0,1,0,.71L946,531.58a.51.51,0,0,1-.71,0h0a.51.51,0,0,1,0-.71l2.12-2.12A.51.51,0,0,1,948.08,528.75Z" transform="translate(-942.23 -528.6)"/></svg>