<svg id="Layer_1" data-name="Layer 1" xmlns="http://www.w3.org/2000/svg" viewBox="0 0 15 15"><defs><style>.cls-1{fill:#007bff;}.cls-2{fill:none;}</style></defs><path class="cls-1" d="M963.5,544.83a3,3,0,0,1-3,3h-5a3,3,0,0,1-3-3v-5a3,3,0,0,1,3-3v1a2,2,0,0,0-2,2v5a2,2,0,0,0,2,2h5a2,2,0,0,0,2-2Z" transform="translate(-952.5 -532.83)"/><path class="cls-2" d="M964.5,533.83h-5a2,2,0,0,0-2,2v5a2,2,0,0,0,2,2h5a2,2,0,0,0,2-2v-5A2,2,0,0,0,964.5,533.83Zm-2.5,7h-2a.5.5,0,0,1-.5-.5.5.5,0,0,1,.5-.5h2a.5.5,0,0,1,.5.5A.5.5,0,0,1,962,540.83Zm2-2h-4a.5.5,0,0,1-.5-.5.5.5,0,0,1,.5-.5h4a.5.5,0,0,1,.5.5A.5.5,0,0,1,964,538.83Zm0-2h-4a.5.5,0,0,1-.5-.5.5.5,0,0,1,.5-.5h4a.5.5,0,0,1,.5.5A.5.5,0,0,1,964,536.83Z" transform="translate(-952.5 -532.83)"/><path class="cls-1" d="M964.5,532.83h-5a3,3,0,0,0-2.82,2,2.77,2.77,0,0,0-.18,1v5a3,3,0,0,0,3,3h5a3,3,0,0,0,3-3v-5A3,3,0,0,0,964.5,532.83Zm2,8a2,2,0,0,1-2,2h-5a2,2,0,0,1-2-2v-5a2,2,0,0,1,2-2h5a2,2,0,0,1,2,2Z" transform="translate(-952.5 -532.83)"/><path class="cls-1" d="M964.5,536.33a.5.5,0,0,1-.5.5h-4a.5.5,0,0,1-.5-.5.5.5,0,0,1,.5-.5h4A.5.5,0,0,1,964.5,536.33Z" transform="translate(-952.5 -532.83)"/><path class="cls-1" d="M964.5,538.33a.5.5,0,0,1-.5.5h-4a.5.5,0,0,1-.5-.5.5.5,0,0,1,.5-.5h4A.5.5,0,0,1,964.5,538.33Z" transform="translate(-952.5 -532.83)"/><path class="cls-1" d="M962.5,540.33a.5.5,0,0,1-.5.5h-2a.5.5,0,0,1-.5-.5.5.5,0,0,1,.5-.5h2A.5.5,0,0,1,962.5,540.33Z" transform="translate(-952.5 -532.83)"/></svg>