<svg id="Layer_1" data-name="Layer 1" xmlns="http://www.w3.org/2000/svg" viewBox="0 0 16 16"><defs><style>.cls-1{fill:#fff;}</style></defs><path class="cls-1" d="M968,540.33a1,1,0,0,1-1,1h-1.27a2,2,0,0,1-3.46,0H953a1,1,0,0,1,0-2h9.27a2,2,0,0,1,3.46,0H967A1,1,0,0,1,968,540.33Z" transform="translate(-952 -532.33)"/><path class="cls-1" d="M968,534.33a1,1,0,0,1-1,1h-9.27a2,2,0,0,1-3.46,0H953a1,1,0,0,1,0-2h1.27a2,2,0,0,1,3.46,0H967A1,1,0,0,1,968,534.33Z" transform="translate(-952 -532.33)"/><path class="cls-1" d="M968,546.33a1,1,0,0,1-1,1h-6.27a2,2,0,0,1-3.46,0H953a1,1,0,0,1,0-2h4.27a2,2,0,0,1,3.46,0H967A1,1,0,0,1,968,546.33Z" transform="translate(-952 -532.33)"/></svg>