<svg id="Lag_1" data-name="Lag 1" xmlns="http://www.w3.org/2000/svg" viewBox="0 0 30 30"><defs><style>.cls-1{fill:#01cc01;}.cls-2{fill:#fff;}</style></defs><g id="Group_262" data-name="Group 262"><g id="Group_50" data-name="Group 50"><rect id="Rectangle_45" data-name="Rectangle 45" class="cls-1" width="30" height="30" rx="5"/><path id="Rectangle_30" data-name="Rectangle 30" class="cls-2" d="M676,383.5h14a1,1,0,0,1,1,1h0a1,1,0,0,1-1,1H676a1,1,0,0,1-1-1h0A1,1,0,0,1,676,383.5Z" transform="translate(-668 -369.5)"/><path id="Rectangle_31" data-name="Rectangle 31" class="cls-2" d="M676,377.5h14a1,1,0,0,1,1,1h0a1,1,0,0,1-1,1H676a1,1,0,0,1-1-1h0A1,1,0,0,1,676,377.5Z" transform="translate(-668 -369.5)"/><path id="Rectangle_32" data-name="Rectangle 32" class="cls-2" d="M676,389.5h14a1,1,0,0,1,1,1h0a1,1,0,0,1-1,1H676a1,1,0,0,1-1-1h0A1,1,0,0,1,676,389.5Z" transform="translate(-668 -369.5)"/><circle id="Ellipse_1" data-name="Ellipse 1" class="cls-2" cx="11" cy="9" r="2"/><circle id="Ellipse_2" data-name="Ellipse 2" class="cls-2" cx="19" cy="15" r="2"/><circle id="Ellipse_3" data-name="Ellipse 3" class="cls-2" cx="14" cy="21" r="2"/></g></g></svg>