<svg id="Layer_1" data-name="Layer 1" xmlns="http://www.w3.org/2000/svg" viewBox="0 0 30 30"><defs><style>.cls-1{fill:#01cc01;}.cls-2{fill:#fff;}</style></defs><g id="Group_50" data-name="Group 50"><rect id="Rectangle_45" data-name="Rectangle 45" class="cls-1" width="30" height="30" rx="5"/><path id="Rectangle_30" data-name="Rectangle 30" class="cls-2" d="M953,539.33h14a1,1,0,0,1,1,1h0a1,1,0,0,1-1,1H953a1,1,0,0,1-1-1h0A1,1,0,0,1,953,539.33Z" transform="translate(-945 -525.33)"/><path id="Rectangle_31" data-name="Rectangle 31" class="cls-2" d="M953,533.33h14a1,1,0,0,1,1,1h0a1,1,0,0,1-1,1H953a1,1,0,0,1-1-1h0A1,1,0,0,1,953,533.33Z" transform="translate(-945 -525.33)"/><path id="Rectangle_32" data-name="Rectangle 32" class="cls-2" d="M953,545.33h14a1,1,0,0,1,1,1h0a1,1,0,0,1-1,1H953a1,1,0,0,1-1-1h0A1,1,0,0,1,953,545.33Z" transform="translate(-945 -525.33)"/><circle id="Ellipse_1" data-name="Ellipse 1" class="cls-2" cx="11" cy="9" r="2"/><circle id="Ellipse_2" data-name="Ellipse 2" class="cls-2" cx="19" cy="15" r="2"/><circle id="Ellipse_3" data-name="Ellipse 3" class="cls-2" cx="14" cy="21" r="2"/></g></svg>