<svg id="Layer_1" data-name="Layer 1" xmlns="http://www.w3.org/2000/svg" viewBox="0 0 14.72 14.73"><defs><style>.cls-1{fill:#d3d3d3;}</style></defs><g id="Ellipse_28" data-name="Ellipse 28"><path class="cls-1" d="M965.68,545a6.16,6.16,0,0,0,.79-1.17A6.67,6.67,0,0,1,965.68,545Zm-.48.53a7.81,7.81,0,0,1-1.08.9A6.62,6.62,0,0,0,965.2,545.54Zm-9.32.9a7.81,7.81,0,0,1-1.08-.9A6.62,6.62,0,0,0,955.88,546.44ZM954.32,545a6.67,6.67,0,0,1-.79-1.17A6.16,6.16,0,0,0,954.32,545Z" transform="translate(-952.64 -532.97)"/><path class="cls-1" d="M966.47,536.82a7.51,7.51,0,0,0-.79-1.17c-.15-.18-.31-.35-.48-.52a7.34,7.34,0,0,0-10.4,0c-.17.17-.33.34-.48.52a7.51,7.51,0,0,0-.79,1.17,7.37,7.37,0,0,0,0,7,6.67,6.67,0,0,0,.79,1.17h0c.16.18.32.36.48.52a7.81,7.81,0,0,0,1.08.9,7.37,7.37,0,0,0,8.24,0,7.81,7.81,0,0,0,1.08-.9c.16-.16.32-.34.48-.52h0a6.67,6.67,0,0,0,.79-1.17,7.37,7.37,0,0,0,0-7ZM961.68,545h-3.26v-.26a1.4,1.4,0,0,0,.66-.1.69.69,0,0,0,.27-.31,2.53,2.53,0,0,0,.1-.84v-2.59a8.13,8.13,0,0,0-.07-1.41.57.57,0,0,0-.16-.33.45.45,0,0,0-.3-.09,1.34,1.34,0,0,0-.5.11l-.1-.27,2-.82h.32v5.4a2.45,2.45,0,0,0,.09.83.66.66,0,0,0,.28.31,1.34,1.34,0,0,0,.65.11Zm-2.16-9.2a.74.74,0,0,1,1.27.53.72.72,0,0,1-.21.52.71.71,0,0,1-.53.22.75.75,0,0,1-.74-.74A.74.74,0,0,1,959.52,535.84Z" transform="translate(-952.64 -532.97)"/></g></svg>