<svg id="Layer_1" data-name="Layer 1" xmlns="http://www.w3.org/2000/svg" viewBox="0 0 15 15"><defs><style>.cls-1{fill:#d3d3d3;}</style></defs><path class="cls-1" d="M944.34,533a7.5,7.5,0,1,0,7.5,7.5A7.5,7.5,0,0,0,944.34,533Zm-.77,2.12a1.14,1.14,0,0,1,.85-.36,1.16,1.16,0,0,1,.86.36,1.19,1.19,0,0,1,.35.86,1.16,1.16,0,0,1-.36.85,1.21,1.21,0,0,1-1.7,0,1.22,1.22,0,0,1,0-1.71Zm2.83,10.49h-3.95v-.28a1,1,0,0,0,.72-.29,1.72,1.72,0,0,0,.16-.95v-4.26a1.73,1.73,0,0,0-.18-1,1,1,0,0,0-.7-.25v-.29h3.06v5.79a1.73,1.73,0,0,0,.18,1,1,1,0,0,0,.71.25Z" transform="translate(-936.84 -533)"/></svg>