<svg id="Layer_1" data-name="Layer 1" xmlns="http://www.w3.org/2000/svg" viewBox="0 0 14.73 14.72"><defs><style>.cls-1{fill:none;}.cls-2{fill:#d3d3d3;}</style></defs><g id="Ellipse_28" data-name="Ellipse 28"><path class="cls-1" d="M961.18,530.93A7.35,7.35,0,0,0,956,543.49a7.54,7.54,0,0,0,1.7,1.27,7.37,7.37,0,0,0,7,0,7.49,7.49,0,0,0,1.69-1.27,7.35,7.35,0,0,0-5.2-12.56ZM962.86,543H959.6v-.26a1.61,1.61,0,0,0,.66-.1.61.61,0,0,0,.26-.32,2.21,2.21,0,0,0,.1-.84V538.9a10.18,10.18,0,0,0-.06-1.42.64.64,0,0,0-.16-.32.49.49,0,0,0-.3-.09,1.3,1.3,0,0,0-.5.11l-.11-.27,2-.82h.32v5.39a2.52,2.52,0,0,0,.09.84.63.63,0,0,0,.27.31,1.42,1.42,0,0,0,.66.11Zm-2.16-9.2a.73.73,0,0,1,.53-.22.71.71,0,0,1,.52.22.69.69,0,0,1,.22.52.71.71,0,0,1-.22.53.67.67,0,0,1-.52.22.73.73,0,0,1-.53-.22.75.75,0,0,1-.22-.53A.73.73,0,0,1,960.7,533.8Z" transform="translate(-953.81 -530.93)"/><path class="cls-2" d="M961.18,530.93A7.35,7.35,0,0,0,956,543.49a7.54,7.54,0,0,0,1.7,1.27,7.37,7.37,0,0,0,7,0,7.49,7.49,0,0,0,1.69-1.27,7.35,7.35,0,0,0-5.2-12.56Zm0,13.8a6.44,6.44,0,1,1,6.44-6.44A6.45,6.45,0,0,1,961.18,544.73Z" transform="translate(-953.81 -530.93)"/></g><path class="cls-2" d="M962.86,542.74V543H959.6v-.26a1.61,1.61,0,0,0,.66-.1.61.61,0,0,0,.26-.32,2.21,2.21,0,0,0,.1-.84V538.9a10.18,10.18,0,0,0-.06-1.42.64.64,0,0,0-.16-.32.49.49,0,0,0-.3-.09,1.3,1.3,0,0,0-.5.11l-.11-.27,2-.82h.32v5.39a2.52,2.52,0,0,0,.09.84.63.63,0,0,0,.27.31A1.42,1.42,0,0,0,962.86,542.74Z" transform="translate(-953.81 -530.93)"/><path class="cls-2" d="M962,534.32a.71.71,0,0,1-.22.53.67.67,0,0,1-.52.22.73.73,0,0,1-.53-.22.75.75,0,0,1-.22-.53.75.75,0,0,1,.75-.74.71.71,0,0,1,.52.22A.69.69,0,0,1,962,534.32Z" transform="translate(-953.81 -530.93)"/></svg>