<svg id="Layer_1" data-name="Layer 1" xmlns="http://www.w3.org/2000/svg" viewBox="0 0 18.76 18"><defs><style>.cls-1{fill:#222;}</style></defs><path class="cls-1" d="M1045.25,594.92a9,9,0,0,1-15.93,2.71l-1.24.81a.5.5,0,0,1-.69-.15.44.44,0,0,1-.08-.29l.09-2.73.06-1.7a.52.52,0,0,1,.52-.48.51.51,0,0,1,.17,0l1.61.65,1.72.69.78.32a.5.5,0,0,1,.27.65.45.45,0,0,1-.19.24l-1.33.87a7,7,0,0,0,12.36-2.31Z" transform="translate(-1027.31 -583.37)"/><path class="cls-1" d="M1046.07,586.85l-.26,2.95-.13,1.46a.46.46,0,0,1-.1.25s0,0,0,0a.48.48,0,0,1-.44.19.53.53,0,0,1-.17,0l-1.49-.69h0l-2.25-1-.27-.13a.5.5,0,0,1-.24-.67.47.47,0,0,1,.2-.22l.86-.5.09,0,.34-.19a7,7,0,0,0-12.38,2.5l-2-.41a9,9,0,0,1,16.08-3.1l1.37-.79a.49.49,0,0,1,.68.18A.53.53,0,0,1,1046.07,586.85Z" transform="translate(-1027.31 -583.37)"/></svg>